{
    "asset" : {
        "generator" : "Khronos glTF Blender I/O v1.5.17",
        "version" : "2.0"
    },
    "scene" : 0,
    "scenes" : [
        {
            "name" : "Scene",
            "nodes" : [
                0,
                1,
                2,
                3,
                4
            ]
        }
    ],
    "nodes" : [
        {
            "name" : "Light",
            "rotation" : [
                0.16907575726509094,
                0.7558803558349609,
                -0.27217137813568115,
                0.570947527885437
            ],
            "translation" : [
                4.076245307922363,
                5.903861999511719,
                -1.0054539442062378
            ]
        },
        {
            "name" : "Camera",
            "rotation" : [
                0.483536034822464,
                0.33687159419059753,
                -0.20870360732078552,
                0.7804827094078064
            ],
            "translation" : [
                9.009842872619629,
                4.142998695373535,
                10.10682487487793
            ]
        },
        {
            "mesh" : 0,
            "name" : "Cylinder.002",
            "rotation" : [
                -0.1294095367193222,
                -0.2241438627243042,
                -0.836516261100769,
                -0.482962965965271
            ],
            "scale" : [
                0.3330647945404053,
                0.4630647897720337,
                0.3330647945404053
            ]
        },
        {
            "mesh" : 1,
            "name" : "Cylinder.004",
            "rotation" : [
                0.7071068286895752,
                0,
                0,
                0.7071068286895752
            ],
            "scale" : [
                0.3330647945404053,
                1.7030647993087769,
                0.3330647945404053
            ],
            "translation" : [
                0,
                -0.021192461252212524,
                -2.379697561264038
            ]
        },
        {
            "mesh" : 2,
            "name" : "Cylinder.001",
            "rotation" : [
                -0.836516261100769,
                -0.482962965965271,
                0.1294095814228058,
                0.2241438925266266
            ],
            "scale" : [
                0.3330647945404053,
                0.4630647897720337,
                0.3330647945404053
            ],
            "translation" : [
                0,
                0,
                -4.315719127655029
            ]
        }
    ],
    "materials" : [
        {
            "doubleSided" : true,
            "name" : "Material.002",
            "pbrMetallicRoughness" : {
                "baseColorFactor" : [
                    0.15319275856018066,
                    0.14116168022155762,
                    0.1427583247423172,
                    1
                ],
                "metallicFactor" : 0,
                "roughnessFactor" : 0.5
            }
        },
        {
            "doubleSided" : true,
            "name" : "Material.003",
            "pbrMetallicRoughness" : {
                "baseColorFactor" : [
                    0.9878662824630737,
                    0.08059487491846085,
                    0.12651656568050385,
                    1
                ],
                "metallicFactor" : 0,
                "roughnessFactor" : 0.5
            }
        },
        {
            "doubleSided" : true,
            "name" : "Material.001",
            "pbrMetallicRoughness" : {
                "baseColorFactor" : [
                    0.07104462385177612,
                    0.0656837597489357,
                    1,
                    1
                ],
                "metallicFactor" : 0,
                "roughnessFactor" : 0.5
            }
        }
    ],
    "meshes" : [
        {
            "name" : "Cylinder.003",
            "primitives" : [
                {
                    "attributes" : {
                        "POSITION" : 0,
                        "NORMAL" : 1,
                        "TEXCOORD_0" : 2
                    },
                    "indices" : 3,
                    "material" : 0
                },
                {
                    "attributes" : {
                        "POSITION" : 4,
                        "NORMAL" : 5,
                        "TEXCOORD_0" : 6
                    },
                    "indices" : 7,
                    "material" : 1
                },
                {
                    "attributes" : {
                        "POSITION" : 8,
                        "NORMAL" : 9,
                        "TEXCOORD_0" : 10
                    },
                    "indices" : 11,
                    "material" : 2
                }
            ]
        },
        {
            "name" : "Cylinder.005",
            "primitives" : [
                {
                    "attributes" : {
                        "POSITION" : 12,
                        "NORMAL" : 13,
                        "TEXCOORD_0" : 14
                    },
                    "indices" : 15,
                    "material" : 0
                }
            ]
        },
        {
            "name" : "Cylinder.006",
            "primitives" : [
                {
                    "attributes" : {
                        "POSITION" : 16,
                        "NORMAL" : 17,
                        "TEXCOORD_0" : 18
                    },
                    "indices" : 3,
                    "material" : 0
                },
                {
                    "attributes" : {
                        "POSITION" : 19,
                        "NORMAL" : 20,
                        "TEXCOORD_0" : 21
                    },
                    "indices" : 7,
                    "material" : 1
                },
                {
                    "attributes" : {
                        "POSITION" : 22,
                        "NORMAL" : 23,
                        "TEXCOORD_0" : 24
                    },
                    "indices" : 11,
                    "material" : 2
                }
            ]
        }
    ],
    "accessors" : [
        {
            "bufferView" : 0,
            "componentType" : 5126,
            "count" : 390,
            "max" : [
                4.480841636657715,
                3.6644961833953857,
                4.069408416748047
            ],
            "min" : [
                -4.480841159820557,
                -1.1698501110076904,
                -1
            ],
            "type" : "VEC3"
        },
        {
            "bufferView" : 1,
            "componentType" : 5126,
            "count" : 390,
            "type" : "VEC3"
        },
        {
            "bufferView" : 2,
            "componentType" : 5126,
            "count" : 390,
            "type" : "VEC2"
        },
        {
            "bufferView" : 3,
            "componentType" : 5123,
            "count" : 1116,
            "type" : "SCALAR"
        },
        {
            "bufferView" : 4,
            "componentType" : 5126,
            "count" : 2067,
            "max" : [
                8.720816612243652,
                7.8951263427734375,
                7.816658020019531
            ],
            "min" : [
                -8.720816612243652,
                -2.2247180938720703,
                -1.9781705141067505
            ],
            "type" : "VEC3"
        },
        {
            "bufferView" : 5,
            "componentType" : 5126,
            "count" : 2067,
            "type" : "VEC3"
        },
        {
            "bufferView" : 6,
            "componentType" : 5126,
            "count" : 2067,
            "type" : "VEC2"
        },
        {
            "bufferView" : 7,
            "componentType" : 5123,
            "count" : 9756,
            "type" : "SCALAR"
        },
        {
            "bufferView" : 8,
            "componentType" : 5126,
            "count" : 559,
            "max" : [
                2.995990514755249,
                2.156242847442627,
                2.9904839992523193
            ],
            "min" : [
                -2.995990753173828,
                -2.156242847442627,
                -2.990480661392212
            ],
            "type" : "VEC3"
        },
        {
            "bufferView" : 9,
            "componentType" : 5126,
            "count" : 559,
            "type" : "VEC3"
        },
        {
            "bufferView" : 10,
            "componentType" : 5126,
            "count" : 559,
            "type" : "VEC2"
        },
        {
            "bufferView" : 11,
            "componentType" : 5123,
            "count" : 2880,
            "type" : "SCALAR"
        },
        {
            "bufferView" : 12,
            "componentType" : 5126,
            "count" : 130,
            "max" : [
                0.9999999403953552,
                1.0000009536743164,
                1.0000003576278687
            ],
            "min" : [
                -1,
                -0.9999990463256836,
                -0.9999997019767761
            ],
            "type" : "VEC3"
        },
        {
            "bufferView" : 13,
            "componentType" : 5126,
            "count" : 130,
            "type" : "VEC3"
        },
        {
            "bufferView" : 14,
            "componentType" : 5126,
            "count" : 130,
            "type" : "VEC2"
        },
        {
            "bufferView" : 15,
            "componentType" : 5123,
            "count" : 372,
            "type" : "SCALAR"
        },
        {
            "bufferView" : 16,
            "componentType" : 5126,
            "count" : 390,
            "max" : [
                4.480841636657715,
                3.6644961833953857,
                4.069408416748047
            ],
            "min" : [
                -4.480841159820557,
                -1.1698501110076904,
                -1
            ],
            "type" : "VEC3"
        },
        {
            "bufferView" : 17,
            "componentType" : 5126,
            "count" : 390,
            "type" : "VEC3"
        },
        {
            "bufferView" : 18,
            "componentType" : 5126,
            "count" : 390,
            "type" : "VEC2"
        },
        {
            "bufferView" : 19,
            "componentType" : 5126,
            "count" : 2067,
            "max" : [
                8.720816612243652,
                7.8951263427734375,
                7.816658020019531
            ],
            "min" : [
                -8.720816612243652,
                -2.2247180938720703,
                -1.9781705141067505
            ],
            "type" : "VEC3"
        },
        {
            "bufferView" : 20,
            "componentType" : 5126,
            "count" : 2067,
            "type" : "VEC3"
        },
        {
            "bufferView" : 21,
            "componentType" : 5126,
            "count" : 2067,
            "type" : "VEC2"
        },
        {
            "bufferView" : 22,
            "componentType" : 5126,
            "count" : 559,
            "max" : [
                2.995990514755249,
                2.156242847442627,
                2.9904839992523193
            ],
            "min" : [
                -2.995990753173828,
                -2.156242847442627,
                -2.990480661392212
            ],
            "type" : "VEC3"
        },
        {
            "bufferView" : 23,
            "componentType" : 5126,
            "count" : 559,
            "type" : "VEC3"
        },
        {
            "bufferView" : 24,
            "componentType" : 5126,
            "count" : 559,
            "type" : "VEC2"
        }
    ],
    "bufferViews" : [
        {
            "buffer" : 0,
            "byteLength" : 4680,
            "byteOffset" : 0
        },
        {
            "buffer" : 0,
            "byteLength" : 4680,
            "byteOffset" : 4680
        },
        {
            "buffer" : 0,
            "byteLength" : 3120,
            "byteOffset" : 9360
        },
        {
            "buffer" : 0,
            "byteLength" : 2232,
            "byteOffset" : 12480
        },
        {
            "buffer" : 0,
            "byteLength" : 24804,
            "byteOffset" : 14712
        },
        {
            "buffer" : 0,
            "byteLength" : 24804,
            "byteOffset" : 39516
        },
        {
            "buffer" : 0,
            "byteLength" : 16536,
            "byteOffset" : 64320
        },
        {
            "buffer" : 0,
            "byteLength" : 19512,
            "byteOffset" : 80856
        },
        {
            "buffer" : 0,
            "byteLength" : 6708,
            "byteOffset" : 100368
        },
        {
            "buffer" : 0,
            "byteLength" : 6708,
            "byteOffset" : 107076
        },
        {
            "buffer" : 0,
            "byteLength" : 4472,
            "byteOffset" : 113784
        },
        {
            "buffer" : 0,
            "byteLength" : 5760,
            "byteOffset" : 118256
        },
        {
            "buffer" : 0,
            "byteLength" : 1560,
            "byteOffset" : 124016
        },
        {
            "buffer" : 0,
            "byteLength" : 1560,
            "byteOffset" : 125576
        },
        {
            "buffer" : 0,
            "byteLength" : 1040,
            "byteOffset" : 127136
        },
        {
            "buffer" : 0,
            "byteLength" : 744,
            "byteOffset" : 128176
        },
        {
            "buffer" : 0,
            "byteLength" : 4680,
            "byteOffset" : 128920
        },
        {
            "buffer" : 0,
            "byteLength" : 4680,
            "byteOffset" : 133600
        },
        {
            "buffer" : 0,
            "byteLength" : 3120,
            "byteOffset" : 138280
        },
        {
            "buffer" : 0,
            "byteLength" : 24804,
            "byteOffset" : 141400
        },
        {
            "buffer" : 0,
            "byteLength" : 24804,
            "byteOffset" : 166204
        },
        {
            "buffer" : 0,
            "byteLength" : 16536,
            "byteOffset" : 191008
        },
        {
            "buffer" : 0,
            "byteLength" : 6708,
            "byteOffset" : 207544
        },
        {
            "buffer" : 0,
            "byteLength" : 6708,
            "byteOffset" : 214252
        },
        {
            "buffer" : 0,
            "byteLength" : 4472,
            "byteOffset" : 220960
        }
    ],
    "buffers" : [
        {
            "byteLength" : 225432,
            "uri" : "data:application/octet-stream;base64,"
        }
    ]
}
